<?xml version="1.0" encoding="utf-8" standalone="no"?>
<!DOCTYPE svg PUBLIC "-//W3C//DTD SVG 1.1//EN"
  "http://www.w3.org/Graphics/SVG/1.1/DTD/svg11.dtd">
<svg xmlns:xlink="http://www.w3.org/1999/xlink" width="720pt" height="468pt" viewBox="0 0 720 468" xmlns="http://www.w3.org/2000/svg" version="1.1">
 <metadata>
  <rdf:RDF xmlns:dc="http://purl.org/dc/elements/1.1/" xmlns:cc="http://creativecommons.org/ns#" xmlns:rdf="http://www.w3.org/1999/02/22-rdf-syntax-ns#">
   <cc:Work>
    <dc:type rdf:resource="http://purl.org/dc/dcmitype/StillImage"/>
    <dc:date>2025-07-26T19:35:25.153455</dc:date>
    <dc:format>image/svg+xml</dc:format>
    <dc:creator>
     <cc:Agent>
      <dc:title>Matplotlib v3.10.0, https://matplotlib.org/</dc:title>
     </cc:Agent>
    </dc:creator>
   </cc:Work>
  </rdf:RDF>
 </metadata>
 <defs>
  <style type="text/css">*{stroke-linejoin: round; stroke-linecap: butt}</style>
 </defs>
 <g id="figure_1">
  <g id="patch_1">
   <path d="M 0 468 
L 720 468 
L 720 0 
L 0 0 
z
" style="fill: #ffffff"/>
  </g>
  <g id="axes_1">
   <g id="patch_2">
    <path d="M 90 416.52 
L 648 416.52 
L 648 181.74 
L 90 181.74 
z
" style="fill: #ffffff"/>
   </g>
   <g id="matplotlib.axis_1">
    <g id="xtick_1">
     <g id="line2d_1">
      <path d="M 188.470588 416.52 
L 188.470588 181.74 
" clip-path="url(#p0c87d22a37)" style="fill: none; stroke: #b0b0b0; stroke-width: 0.8; stroke-linecap: square"/>
     </g>
     <g id="line2d_2">
      <defs>
       <path id="ma7f762c375" d="M 0 0 
L 0 3.5 
" style="stroke: #000000; stroke-width: 0.8"/>
      </defs>
      <g>
       <use xlink:href="#ma7f762c375" x="188.470588" y="416.52" style="stroke: #000000; stroke-width: 0.8"/>
      </g>
     </g>
     <g id="text_1">
      <!-- 20 -->
      <g transform="translate(174.473088 440.236563) scale(0.22 -0.22)">
       <defs>
        <path id="DejaVuSans-32" d="M 1228 531 
L 3431 531 
L 3431 0 
L 469 0 
L 469 531 
Q 828 903 1448 1529 
Q 2069 2156 2228 2338 
Q 2531 2678 2651 2914 
Q 2772 3150 2772 3378 
Q 2772 3750 2511 3984 
Q 2250 4219 1831 4219 
Q 1534 4219 1204 4116 
Q 875 4013 500 3803 
L 500 4441 
Q 881 4594 1212 4672 
Q 1544 4750 1819 4750 
Q 2544 4750 2975 4387 
Q 3406 4025 3406 3419 
Q 3406 3131 3298 2873 
Q 3191 2616 2906 2266 
Q 2828 2175 2409 1742 
Q 1991 1309 1228 531 
z
" transform="scale(0.015625)"/>
        <path id="DejaVuSans-30" d="M 2034 4250 
Q 1547 4250 1301 3770 
Q 1056 3291 1056 2328 
Q 1056 1369 1301 889 
Q 1547 409 2034 409 
Q 2525 409 2770 889 
Q 3016 1369 3016 2328 
Q 3016 3291 2770 3770 
Q 2525 4250 2034 4250 
z
M 2034 4750 
Q 2819 4750 3233 4129 
Q 3647 3509 3647 2328 
Q 3647 1150 3233 529 
Q 2819 -91 2034 -91 
Q 1250 -91 836 529 
Q 422 1150 422 2328 
Q 422 3509 836 4129 
Q 1250 4750 2034 4750 
z
" transform="scale(0.015625)"/>
       </defs>
       <use xlink:href="#DejaVuSans-32"/>
       <use xlink:href="#DejaVuSans-30" transform="translate(63.623047 0)"/>
      </g>
     </g>
    </g>
    <g id="xtick_2">
     <g id="line2d_3">
      <path d="M 319.764706 416.52 
L 319.764706 181.74 
" clip-path="url(#p0c87d22a37)" style="fill: none; stroke: #b0b0b0; stroke-width: 0.8; stroke-linecap: square"/>
     </g>
     <g id="line2d_4">
      <g>
       <use xlink:href="#ma7f762c375" x="319.764706" y="416.52" style="stroke: #000000; stroke-width: 0.8"/>
      </g>
     </g>
     <g id="text_2">
      <!-- 40 -->
      <g transform="translate(305.767206 440.236563) scale(0.22 -0.22)">
       <defs>
        <path id="DejaVuSans-34" d="M 2419 4116 
L 825 1625 
L 2419 1625 
L 2419 4116 
z
M 2253 4666 
L 3047 4666 
L 3047 1625 
L 3713 1625 
L 3713 1100 
L 3047 1100 
L 3047 0 
L 2419 0 
L 2419 1100 
L 313 1100 
L 313 1709 
L 2253 4666 
z
" transform="scale(0.015625)"/>
       </defs>
       <use xlink:href="#DejaVuSans-34"/>
       <use xlink:href="#DejaVuSans-30" transform="translate(63.623047 0)"/>
      </g>
     </g>
    </g>
    <g id="xtick_3">
     <g id="line2d_5">
      <path d="M 451.058824 416.52 
L 451.058824 181.74 
" clip-path="url(#p0c87d22a37)" style="fill: none; stroke: #b0b0b0; stroke-width: 0.8; stroke-linecap: square"/>
     </g>
     <g id="line2d_6">
      <g>
       <use xlink:href="#ma7f762c375" x="451.058824" y="416.52" style="stroke: #000000; stroke-width: 0.8"/>
      </g>
     </g>
     <g id="text_3">
      <!-- 60 -->
      <g transform="translate(437.061324 440.236563) scale(0.22 -0.22)">
       <defs>
        <path id="DejaVuSans-36" d="M 2113 2584 
Q 1688 2584 1439 2293 
Q 1191 2003 1191 1497 
Q 1191 994 1439 701 
Q 1688 409 2113 409 
Q 2538 409 2786 701 
Q 3034 994 3034 1497 
Q 3034 2003 2786 2293 
Q 2538 2584 2113 2584 
z
M 3366 4563 
L 3366 3988 
Q 3128 4100 2886 4159 
Q 2644 4219 2406 4219 
Q 1781 4219 1451 3797 
Q 1122 3375 1075 2522 
Q 1259 2794 1537 2939 
Q 1816 3084 2150 3084 
Q 2853 3084 3261 2657 
Q 3669 2231 3669 1497 
Q 3669 778 3244 343 
Q 2819 -91 2113 -91 
Q 1303 -91 875 529 
Q 447 1150 447 2328 
Q 447 3434 972 4092 
Q 1497 4750 2381 4750 
Q 2619 4750 2861 4703 
Q 3103 4656 3366 4563 
z
" transform="scale(0.015625)"/>
       </defs>
       <use xlink:href="#DejaVuSans-36"/>
       <use xlink:href="#DejaVuSans-30" transform="translate(63.623047 0)"/>
      </g>
     </g>
    </g>
    <g id="xtick_4">
     <g id="line2d_7">
      <path d="M 582.352941 416.52 
L 582.352941 181.74 
" clip-path="url(#p0c87d22a37)" style="fill: none; stroke: #b0b0b0; stroke-width: 0.8; stroke-linecap: square"/>
     </g>
     <g id="line2d_8">
      <g>
       <use xlink:href="#ma7f762c375" x="582.352941" y="416.52" style="stroke: #000000; stroke-width: 0.8"/>
      </g>
     </g>
     <g id="text_4">
      <!-- 80 -->
      <g transform="translate(568.355441 440.236563) scale(0.22 -0.22)">
       <defs>
        <path id="DejaVuSans-38" d="M 2034 2216 
Q 1584 2216 1326 1975 
Q 1069 1734 1069 1313 
Q 1069 891 1326 650 
Q 1584 409 2034 409 
Q 2484 409 2743 651 
Q 3003 894 3003 1313 
Q 3003 1734 2745 1975 
Q 2488 2216 2034 2216 
z
M 1403 2484 
Q 997 2584 770 2862 
Q 544 3141 544 3541 
Q 544 4100 942 4425 
Q 1341 4750 2034 4750 
Q 2731 4750 3128 4425 
Q 3525 4100 3525 3541 
Q 3525 3141 3298 2862 
Q 3072 2584 2669 2484 
Q 3125 2378 3379 2068 
Q 3634 1759 3634 1313 
Q 3634 634 3220 271 
Q 2806 -91 2034 -91 
Q 1263 -91 848 271 
Q 434 634 434 1313 
Q 434 1759 690 2068 
Q 947 2378 1403 2484 
z
M 1172 3481 
Q 1172 3119 1398 2916 
Q 1625 2713 2034 2713 
Q 2441 2713 2670 2916 
Q 2900 3119 2900 3481 
Q 2900 3844 2670 4047 
Q 2441 4250 2034 4250 
Q 1625 4250 1398 4047 
Q 1172 3844 1172 3481 
z
" transform="scale(0.015625)"/>
       </defs>
       <use xlink:href="#DejaVuSans-38"/>
       <use xlink:href="#DejaVuSans-30" transform="translate(63.623047 0)"/>
      </g>
     </g>
    </g>
    <g id="text_5">
     <!-- Time (ms) -->
     <g transform="translate(313.561719 465.528438) scale(0.22 -0.22)">
      <defs>
       <path id="DejaVuSans-54" d="M -19 4666 
L 3928 4666 
L 3928 4134 
L 2272 4134 
L 2272 0 
L 1638 0 
L 1638 4134 
L -19 4134 
L -19 4666 
z
" transform="scale(0.015625)"/>
       <path id="DejaVuSans-69" d="M 603 3500 
L 1178 3500 
L 1178 0 
L 603 0 
L 603 3500 
z
M 603 4863 
L 1178 4863 
L 1178 4134 
L 603 4134 
L 603 4863 
z
" transform="scale(0.015625)"/>
       <path id="DejaVuSans-6d" d="M 3328 2828 
Q 3544 3216 3844 3400 
Q 4144 3584 4550 3584 
Q 5097 3584 5394 3201 
Q 5691 2819 5691 2113 
L 5691 0 
L 5113 0 
L 5113 2094 
Q 5113 2597 4934 2840 
Q 4756 3084 4391 3084 
Q 3944 3084 3684 2787 
Q 3425 2491 3425 1978 
L 3425 0 
L 2847 0 
L 2847 2094 
Q 2847 2600 2669 2842 
Q 2491 3084 2119 3084 
Q 1678 3084 1418 2786 
Q 1159 2488 1159 1978 
L 1159 0 
L 581 0 
L 581 3500 
L 1159 3500 
L 1159 2956 
Q 1356 3278 1631 3431 
Q 1906 3584 2284 3584 
Q 2666 3584 2933 3390 
Q 3200 3197 3328 2828 
z
" transform="scale(0.015625)"/>
       <path id="DejaVuSans-65" d="M 3597 1894 
L 3597 1613 
L 953 1613 
Q 991 1019 1311 708 
Q 1631 397 2203 397 
Q 2534 397 2845 478 
Q 3156 559 3463 722 
L 3463 178 
Q 3153 47 2828 -22 
Q 2503 -91 2169 -91 
Q 1331 -91 842 396 
Q 353 884 353 1716 
Q 353 2575 817 3079 
Q 1281 3584 2069 3584 
Q 2775 3584 3186 3129 
Q 3597 2675 3597 1894 
z
M 3022 2063 
Q 3016 2534 2758 2815 
Q 2500 3097 2075 3097 
Q 1594 3097 1305 2825 
Q 1016 2553 972 2059 
L 3022 2063 
z
" transform="scale(0.015625)"/>
       <path id="DejaVuSans-20" transform="scale(0.015625)"/>
       <path id="DejaVuSans-28" d="M 1984 4856 
Q 1566 4138 1362 3434 
Q 1159 2731 1159 2009 
Q 1159 1288 1364 580 
Q 1569 -128 1984 -844 
L 1484 -844 
Q 1016 -109 783 600 
Q 550 1309 550 2009 
Q 550 2706 781 3412 
Q 1013 4119 1484 4856 
L 1984 4856 
z
" transform="scale(0.015625)"/>
       <path id="DejaVuSans-73" d="M 2834 3397 
L 2834 2853 
Q 2591 2978 2328 3040 
Q 2066 3103 1784 3103 
Q 1356 3103 1142 2972 
Q 928 2841 928 2578 
Q 928 2378 1081 2264 
Q 1234 2150 1697 2047 
L 1894 2003 
Q 2506 1872 2764 1633 
Q 3022 1394 3022 966 
Q 3022 478 2636 193 
Q 2250 -91 1575 -91 
Q 1294 -91 989 -36 
Q 684 19 347 128 
L 347 722 
Q 666 556 975 473 
Q 1284 391 1588 391 
Q 1994 391 2212 530 
Q 2431 669 2431 922 
Q 2431 1156 2273 1281 
Q 2116 1406 1581 1522 
L 1381 1569 
Q 847 1681 609 1914 
Q 372 2147 372 2553 
Q 372 3047 722 3315 
Q 1072 3584 1716 3584 
Q 2034 3584 2315 3537 
Q 2597 3491 2834 3397 
z
" transform="scale(0.015625)"/>
       <path id="DejaVuSans-29" d="M 513 4856 
L 1013 4856 
Q 1481 4119 1714 3412 
Q 1947 2706 1947 2009 
Q 1947 1309 1714 600 
Q 1481 -109 1013 -844 
L 513 -844 
Q 928 -128 1133 580 
Q 1338 1288 1338 2009 
Q 1338 2731 1133 3434 
Q 928 4138 513 4856 
z
" transform="scale(0.015625)"/>
      </defs>
      <use xlink:href="#DejaVuSans-54"/>
      <use xlink:href="#DejaVuSans-69" transform="translate(57.958984 0)"/>
      <use xlink:href="#DejaVuSans-6d" transform="translate(85.742188 0)"/>
      <use xlink:href="#DejaVuSans-65" transform="translate(183.154297 0)"/>
      <use xlink:href="#DejaVuSans-20" transform="translate(244.677734 0)"/>
      <use xlink:href="#DejaVuSans-28" transform="translate(276.464844 0)"/>
      <use xlink:href="#DejaVuSans-6d" transform="translate(315.478516 0)"/>
      <use xlink:href="#DejaVuSans-73" transform="translate(412.890625 0)"/>
      <use xlink:href="#DejaVuSans-29" transform="translate(464.990234 0)"/>
     </g>
    </g>
   </g>
   <g id="matplotlib.axis_2">
    <g id="ytick_1">
     <g id="line2d_9">
      <path d="M 90 405.848182 
L 648 405.848182 
" clip-path="url(#p0c87d22a37)" style="fill: none; stroke: #b0b0b0; stroke-width: 0.8; stroke-linecap: square"/>
     </g>
     <g id="line2d_10">
      <defs>
       <path id="m297839409d" d="M 0 0 
L -3.5 0 
" style="stroke: #000000; stroke-width: 0.8"/>
      </defs>
      <g>
       <use xlink:href="#m297839409d" x="90" y="405.848182" style="stroke: #000000; stroke-width: 0.8"/>
      </g>
     </g>
     <g id="text_6">
      <!-- 0 -->
      <g transform="translate(69.0025 414.206463) scale(0.22 -0.22)">
       <use xlink:href="#DejaVuSans-30"/>
      </g>
     </g>
    </g>
    <g id="ytick_2">
     <g id="line2d_11">
      <path d="M 90 321.53597 
L 648 321.53597 
" clip-path="url(#p0c87d22a37)" style="fill: none; stroke: #b0b0b0; stroke-width: 0.8; stroke-linecap: square"/>
     </g>
     <g id="line2d_12">
      <g>
       <use xlink:href="#m297839409d" x="90" y="321.53597" style="stroke: #000000; stroke-width: 0.8"/>
      </g>
     </g>
     <g id="text_7">
      <!-- 20 -->
      <g transform="translate(55.005 329.894251) scale(0.22 -0.22)">
       <use xlink:href="#DejaVuSans-32"/>
       <use xlink:href="#DejaVuSans-30" transform="translate(63.623047 0)"/>
      </g>
     </g>
    </g>
    <g id="ytick_3">
     <g id="line2d_13">
      <path d="M 90 237.223759 
L 648 237.223759 
" clip-path="url(#p0c87d22a37)" style="fill: none; stroke: #b0b0b0; stroke-width: 0.8; stroke-linecap: square"/>
     </g>
     <g id="line2d_14">
      <g>
       <use xlink:href="#m297839409d" x="90" y="237.223759" style="stroke: #000000; stroke-width: 0.8"/>
      </g>
     </g>
     <g id="text_8">
      <!-- 40 -->
      <g transform="translate(55.005 245.58204) scale(0.22 -0.22)">
       <use xlink:href="#DejaVuSans-34"/>
       <use xlink:href="#DejaVuSans-30" transform="translate(63.623047 0)"/>
      </g>
     </g>
    </g>
    <g id="text_9">
     <!-- Throughput (Gbps) -->
     <g transform="translate(30.429687 403.317188) rotate(-90) scale(0.22 -0.22)">
      <defs>
       <path id="DejaVuSans-68" d="M 3513 2113 
L 3513 0 
L 2938 0 
L 2938 2094 
Q 2938 2591 2744 2837 
Q 2550 3084 2163 3084 
Q 1697 3084 1428 2787 
Q 1159 2491 1159 1978 
L 1159 0 
L 581 0 
L 581 4863 
L 1159 4863 
L 1159 2956 
Q 1366 3272 1645 3428 
Q 1925 3584 2291 3584 
Q 2894 3584 3203 3211 
Q 3513 2838 3513 2113 
z
" transform="scale(0.015625)"/>
       <path id="DejaVuSans-72" d="M 2631 2963 
Q 2534 3019 2420 3045 
Q 2306 3072 2169 3072 
Q 1681 3072 1420 2755 
Q 1159 2438 1159 1844 
L 1159 0 
L 581 0 
L 581 3500 
L 1159 3500 
L 1159 2956 
Q 1341 3275 1631 3429 
Q 1922 3584 2338 3584 
Q 2397 3584 2469 3576 
Q 2541 3569 2628 3553 
L 2631 2963 
z
" transform="scale(0.015625)"/>
       <path id="DejaVuSans-6f" d="M 1959 3097 
Q 1497 3097 1228 2736 
Q 959 2375 959 1747 
Q 959 1119 1226 758 
Q 1494 397 1959 397 
Q 2419 397 2687 759 
Q 2956 1122 2956 1747 
Q 2956 2369 2687 2733 
Q 2419 3097 1959 3097 
z
M 1959 3584 
Q 2709 3584 3137 3096 
Q 3566 2609 3566 1747 
Q 3566 888 3137 398 
Q 2709 -91 1959 -91 
Q 1206 -91 779 398 
Q 353 888 353 1747 
Q 353 2609 779 3096 
Q 1206 3584 1959 3584 
z
" transform="scale(0.015625)"/>
       <path id="DejaVuSans-75" d="M 544 1381 
L 544 3500 
L 1119 3500 
L 1119 1403 
Q 1119 906 1312 657 
Q 1506 409 1894 409 
Q 2359 409 2629 706 
Q 2900 1003 2900 1516 
L 2900 3500 
L 3475 3500 
L 3475 0 
L 2900 0 
L 2900 538 
Q 2691 219 2414 64 
Q 2138 -91 1772 -91 
Q 1169 -91 856 284 
Q 544 659 544 1381 
z
M 1991 3584 
L 1991 3584 
z
" transform="scale(0.015625)"/>
       <path id="DejaVuSans-67" d="M 2906 1791 
Q 2906 2416 2648 2759 
Q 2391 3103 1925 3103 
Q 1463 3103 1205 2759 
Q 947 2416 947 1791 
Q 947 1169 1205 825 
Q 1463 481 1925 481 
Q 2391 481 2648 825 
Q 2906 1169 2906 1791 
z
M 3481 434 
Q 3481 -459 3084 -895 
Q 2688 -1331 1869 -1331 
Q 1566 -1331 1297 -1286 
Q 1028 -1241 775 -1147 
L 775 -588 
Q 1028 -725 1275 -790 
Q 1522 -856 1778 -856 
Q 2344 -856 2625 -561 
Q 2906 -266 2906 331 
L 2906 616 
Q 2728 306 2450 153 
Q 2172 0 1784 0 
Q 1141 0 747 490 
Q 353 981 353 1791 
Q 353 2603 747 3093 
Q 1141 3584 1784 3584 
Q 2172 3584 2450 3431 
Q 2728 3278 2906 2969 
L 2906 3500 
L 3481 3500 
L 3481 434 
z
" transform="scale(0.015625)"/>
       <path id="DejaVuSans-70" d="M 1159 525 
L 1159 -1331 
L 581 -1331 
L 581 3500 
L 1159 3500 
L 1159 2969 
Q 1341 3281 1617 3432 
Q 1894 3584 2278 3584 
Q 2916 3584 3314 3078 
Q 3713 2572 3713 1747 
Q 3713 922 3314 415 
Q 2916 -91 2278 -91 
Q 1894 -91 1617 61 
Q 1341 213 1159 525 
z
M 3116 1747 
Q 3116 2381 2855 2742 
Q 2594 3103 2138 3103 
Q 1681 3103 1420 2742 
Q 1159 2381 1159 1747 
Q 1159 1113 1420 752 
Q 1681 391 2138 391 
Q 2594 391 2855 752 
Q 3116 1113 3116 1747 
z
" transform="scale(0.015625)"/>
       <path id="DejaVuSans-74" d="M 1172 4494 
L 1172 3500 
L 2356 3500 
L 2356 3053 
L 1172 3053 
L 1172 1153 
Q 1172 725 1289 603 
Q 1406 481 1766 481 
L 2356 481 
L 2356 0 
L 1766 0 
Q 1100 0 847 248 
Q 594 497 594 1153 
L 594 3053 
L 172 3053 
L 172 3500 
L 594 3500 
L 594 4494 
L 1172 4494 
z
" transform="scale(0.015625)"/>
       <path id="DejaVuSans-47" d="M 3809 666 
L 3809 1919 
L 2778 1919 
L 2778 2438 
L 4434 2438 
L 4434 434 
Q 4069 175 3628 42 
Q 3188 -91 2688 -91 
Q 1594 -91 976 548 
Q 359 1188 359 2328 
Q 359 3472 976 4111 
Q 1594 4750 2688 4750 
Q 3144 4750 3555 4637 
Q 3966 4525 4313 4306 
L 4313 3634 
Q 3963 3931 3569 4081 
Q 3175 4231 2741 4231 
Q 1884 4231 1454 3753 
Q 1025 3275 1025 2328 
Q 1025 1384 1454 906 
Q 1884 428 2741 428 
Q 3075 428 3337 486 
Q 3600 544 3809 666 
z
" transform="scale(0.015625)"/>
       <path id="DejaVuSans-62" d="M 3116 1747 
Q 3116 2381 2855 2742 
Q 2594 3103 2138 3103 
Q 1681 3103 1420 2742 
Q 1159 2381 1159 1747 
Q 1159 1113 1420 752 
Q 1681 391 2138 391 
Q 2594 391 2855 752 
Q 3116 1113 3116 1747 
z
M 1159 2969 
Q 1341 3281 1617 3432 
Q 1894 3584 2278 3584 
Q 2916 3584 3314 3078 
Q 3713 2572 3713 1747 
Q 3713 922 3314 415 
Q 2916 -91 2278 -91 
Q 1894 -91 1617 61 
Q 1341 213 1159 525 
L 1159 0 
L 581 0 
L 581 4863 
L 1159 4863 
L 1159 2969 
z
" transform="scale(0.015625)"/>
      </defs>
      <use xlink:href="#DejaVuSans-54"/>
      <use xlink:href="#DejaVuSans-68" transform="translate(61.083984 0)"/>
      <use xlink:href="#DejaVuSans-72" transform="translate(124.462891 0)"/>
      <use xlink:href="#DejaVuSans-6f" transform="translate(163.326172 0)"/>
      <use xlink:href="#DejaVuSans-75" transform="translate(224.507812 0)"/>
      <use xlink:href="#DejaVuSans-67" transform="translate(287.886719 0)"/>
      <use xlink:href="#DejaVuSans-68" transform="translate(351.363281 0)"/>
      <use xlink:href="#DejaVuSans-70" transform="translate(414.742188 0)"/>
      <use xlink:href="#DejaVuSans-75" transform="translate(478.21875 0)"/>
      <use xlink:href="#DejaVuSans-74" transform="translate(541.597656 0)"/>
      <use xlink:href="#DejaVuSans-20" transform="translate(580.806641 0)"/>
      <use xlink:href="#DejaVuSans-28" transform="translate(612.59375 0)"/>
      <use xlink:href="#DejaVuSans-47" transform="translate(651.607422 0)"/>
      <use xlink:href="#DejaVuSans-62" transform="translate(729.097656 0)"/>
      <use xlink:href="#DejaVuSans-70" transform="translate(792.574219 0)"/>
      <use xlink:href="#DejaVuSans-73" transform="translate(856.050781 0)"/>
      <use xlink:href="#DejaVuSans-29" transform="translate(908.150391 0)"/>
     </g>
    </g>
   </g>
   <g id="line2d_15">
    <path d="M 89.934353 405.848182 
L 122.823529 405.848182 
L 122.889176 405.637401 
L 123.020471 405.848182 
L 123.217412 294.808999 
L 123.348706 289.49733 
L 123.545647 252.484269 
L 123.939529 199.620512 
L 124.005176 199.620512 
L 124.136471 194.308843 
L 188.470588 194.308843 
L 188.536235 194.098062 
L 188.667529 194.308843 
L 249.194118 194.308843 
L 249.259765 192.411818 
L 249.391059 194.308843 
L 250.178824 194.308843 
L 250.244471 194.098062 
L 250.375765 194.308843 
L 250.966588 194.308843 
L 251.032235 199.620512 
L 251.097882 273.646634 
L 251.163529 263.065451 
L 251.229176 257.795938 
L 251.491765 215.471208 
L 251.557412 215.471208 
L 251.754353 194.308843 
L 254.117647 194.308843 
L 254.183294 194.098062 
L 254.314588 194.308843 
L 259.369412 194.308843 
L 259.435059 210.201695 
L 259.500706 204.890025 
L 259.566353 204.890025 
L 259.697647 194.308843 
L 260.222824 194.308843 
L 260.288471 199.620512 
L 260.419765 194.308843 
L 261.141882 194.308843 
L 261.273176 210.201695 
L 261.470118 194.308843 
L 261.535765 194.308843 
L 261.601412 199.620512 
L 261.667059 194.308843 
L 261.732706 199.620512 
L 261.864 194.308843 
L 264.161647 194.308843 
L 264.292941 204.890025 
L 264.489882 194.308843 
L 264.621176 194.308843 
L 264.686824 199.620512 
L 264.752471 194.308843 
L 264.818118 199.620512 
L 264.883765 194.308843 
L 264.949412 199.620512 
L 265.080706 194.308843 
L 265.671529 194.308843 
L 265.737176 199.620512 
L 265.868471 194.308843 
L 269.544706 194.308843 
L 269.610353 199.620512 
L 269.676 194.308843 
L 269.741647 199.620512 
L 269.872941 194.308843 
L 270.069882 194.308843 
L 270.332471 210.201695 
L 270.398118 210.201695 
L 270.660706 194.308843 
L 272.958353 194.308843 
L 273.089647 204.890025 
L 273.220941 194.308843 
L 273.417882 194.308843 
L 273.483529 199.620512 
L 273.614824 194.308843 
L 273.811765 194.308843 
L 273.877412 210.201695 
L 274.008706 194.308843 
L 274.074353 194.308843 
L 274.14 199.620512 
L 274.205647 194.308843 
L 274.336941 199.620512 
L 274.402588 199.620512 
L 274.468235 204.890025 
L 274.665176 194.308843 
L 274.730824 199.620512 
L 274.862118 194.308843 
L 275.190353 194.308843 
L 275.321647 204.890025 
L 275.452941 194.308843 
L 275.518588 204.890025 
L 275.584235 194.308843 
L 275.649882 199.620512 
L 275.781176 194.308843 
L 276.175059 194.308843 
L 276.240706 199.620512 
L 276.372 194.308843 
L 276.437647 199.620512 
L 276.568941 194.308843 
L 276.634588 199.620512 
L 276.700235 194.308843 
L 276.831529 199.620512 
L 276.962824 194.308843 
L 277.159765 194.308843 
L 277.225412 199.620512 
L 277.356706 194.308843 
L 277.881882 194.308843 
L 277.947529 199.620512 
L 278.013176 194.308843 
L 278.078824 199.620512 
L 278.210118 194.308843 
L 278.669647 194.308843 
L 278.735294 199.620512 
L 278.866588 194.308843 
L 278.932235 194.308843 
L 278.997882 199.620512 
L 279.129176 194.308843 
L 279.457412 194.308843 
L 279.523059 199.620512 
L 279.654353 194.308843 
L 279.72 194.308843 
L 279.785647 199.620512 
L 279.916941 194.308843 
L 280.048235 194.308843 
L 280.113882 199.620512 
L 280.245176 194.308843 
L 283.396235 194.308843 
L 283.527529 199.620512 
L 283.658824 194.308843 
L 284.184 194.308843 
L 284.315294 199.620512 
L 284.380941 194.308843 
L 284.577882 204.890025 
L 284.709176 194.308843 
L 284.840471 194.308843 
L 285.103059 215.471208 
L 285.431294 194.308843 
L 285.628235 194.308843 
L 285.825176 204.890025 
L 286.022118 204.890025 
L 286.153412 194.308843 
L 286.219059 199.620512 
L 286.350353 194.308843 
L 287.925882 194.308843 
L 287.991529 199.620512 
L 288.122824 194.308843 
L 288.385412 194.308843 
L 288.516706 204.890025 
L 288.713647 194.308843 
L 288.844941 199.620512 
L 288.976235 194.308843 
L 289.107529 194.308843 
L 289.238824 199.620512 
L 289.304471 199.620512 
L 289.435765 194.308843 
L 289.567059 199.620512 
L 289.698353 194.308843 
L 289.960941 194.308843 
L 290.026588 204.890025 
L 290.157882 194.308843 
L 290.683059 194.308843 
L 290.814353 215.471208 
L 291.142588 194.308843 
L 291.208235 199.620512 
L 291.339529 194.308843 
L 291.405176 194.308843 
L 291.602118 210.201695 
L 291.667765 210.201695 
L 291.864706 199.620512 
L 291.996 199.620512 
L 292.127294 194.308843 
L 293.046353 194.308843 
L 293.112 199.620512 
L 293.243294 194.308843 
L 293.505882 194.308843 
L 293.571529 204.890025 
L 293.637176 194.308843 
L 293.702824 199.620512 
L 293.768471 194.308843 
L 293.899765 204.890025 
L 293.965412 194.308843 
L 294.031059 199.620512 
L 294.162353 210.201695 
L 294.228 210.201695 
L 294.424941 194.308843 
L 294.556235 199.620512 
L 294.687529 194.308843 
L 295.015765 194.308843 
L 295.147059 199.620512 
L 295.212706 194.308843 
L 295.344 199.620512 
L 295.475294 194.308843 
L 295.737882 194.308843 
L 295.803529 199.620512 
L 295.869176 220.782877 
L 295.934824 215.471208 
L 296.000471 220.782877 
L 296.197412 194.308843 
L 296.263059 199.620512 
L 296.394353 194.308843 
L 296.591294 194.308843 
L 296.722588 199.620512 
L 296.985176 199.620512 
L 297.050824 194.308843 
L 297.116471 204.890025 
L 297.182118 199.620512 
L 297.247765 194.308843 
L 297.313412 199.620512 
L 297.444706 194.308843 
L 297.576 199.620512 
L 297.641647 199.620512 
L 297.772941 194.308843 
L 297.838588 199.620512 
L 297.969882 194.308843 
L 298.429412 194.308843 
L 298.495059 199.620512 
L 298.560706 194.308843 
L 298.626353 199.620512 
L 298.757647 194.308843 
L 298.823294 199.620512 
L 298.954588 194.308843 
L 299.085882 194.308843 
L 299.151529 199.620512 
L 299.217176 194.308843 
L 299.282824 210.201695 
L 299.348471 204.890025 
L 299.479765 194.308843 
L 300.070588 194.308843 
L 300.136235 204.890025 
L 300.201882 194.308843 
L 300.267529 199.620512 
L 300.398824 194.308843 
L 300.464471 199.620512 
L 300.530118 194.308843 
L 300.595765 199.620512 
L 300.727059 194.308843 
L 300.858353 194.308843 
L 301.055294 210.201695 
L 301.252235 194.308843 
L 301.317882 194.308843 
L 301.383529 199.620512 
L 301.514824 194.308843 
L 304.272 194.308843 
L 304.337647 204.890025 
L 304.403294 199.620512 
L 304.468941 199.620512 
L 304.600235 204.890025 
L 304.731529 194.308843 
L 304.797176 194.308843 
L 304.862824 199.620512 
L 304.928471 194.308843 
L 305.125412 204.890025 
L 305.322353 194.308843 
L 305.388 204.890025 
L 305.453647 199.620512 
L 305.584941 194.308843 
L 305.781882 194.308843 
L 305.847529 204.890025 
L 305.913176 199.620512 
L 305.978824 199.620512 
L 306.110118 194.308843 
L 308.604706 194.308843 
L 308.670353 210.201695 
L 308.801647 194.308843 
L 308.932941 194.308843 
L 308.998588 204.890025 
L 309.064235 199.620512 
L 309.195529 204.890025 
L 309.392471 194.308843 
L 309.458118 204.890025 
L 309.523765 199.620512 
L 309.655059 194.308843 
L 309.852 194.308843 
L 309.917647 199.620512 
L 309.983294 194.308843 
L 310.048941 199.620512 
L 310.180235 194.308843 
L 310.245882 199.620512 
L 310.377176 194.308843 
L 310.508471 194.308843 
L 310.574118 199.620512 
L 310.639765 194.308843 
L 310.771059 199.620512 
L 310.836706 199.620512 
L 310.968 194.308843 
L 311.427529 194.308843 
L 311.558824 204.890025 
L 311.624471 204.890025 
L 311.821412 194.308843 
L 311.887059 199.620512 
L 312.018353 194.308843 
L 312.543529 194.308843 
L 312.674824 204.890025 
L 312.871765 194.308843 
L 313.003059 194.308843 
L 313.134353 204.890025 
L 313.265647 199.620512 
L 313.331294 199.620512 
L 313.396941 194.308843 
L 313.462588 199.620512 
L 313.593882 194.308843 
L 313.856471 194.308843 
L 314.053412 204.890025 
L 314.250353 194.308843 
L 314.316 194.308843 
L 314.381647 210.201695 
L 314.447294 199.620512 
L 314.578588 194.308843 
L 314.709882 194.308843 
L 314.841176 210.201695 
L 314.906824 210.201695 
L 314.972471 204.890025 
L 315.038118 210.201695 
L 315.169412 194.308843 
L 315.235059 199.620512 
L 315.300706 194.308843 
L 315.366353 199.620512 
L 315.497647 194.308843 
L 317.598353 194.308843 
L 317.664 199.620512 
L 317.795294 194.308843 
L 318.057882 194.308843 
L 318.123529 204.890025 
L 318.189176 199.620512 
L 318.254824 199.620512 
L 318.320471 194.308843 
L 318.451765 199.620512 
L 318.583059 194.308843 
L 318.714353 194.308843 
L 318.845647 204.890025 
L 318.911294 199.620512 
L 318.976941 204.890025 
L 319.042588 199.620512 
L 319.108235 204.890025 
L 319.305176 194.308843 
L 319.764706 194.308843 
L 319.830353 194.098062 
L 319.961647 194.308843 
L 320.027294 199.620512 
L 320.158588 194.308843 
L 320.355529 194.308843 
L 320.486824 220.782877 
L 320.552471 226.052391 
L 320.618118 220.782877 
L 320.749412 236.633573 
L 320.815059 220.782877 
L 320.880706 247.214756 
L 320.946353 220.782877 
L 321.012 241.903086 
L 321.077647 236.633573 
L 321.143294 220.782877 
L 321.208941 241.903086 
L 321.274588 226.052391 
L 321.340235 231.321904 
L 321.405882 226.052391 
L 321.471529 210.201695 
L 321.537176 220.782877 
L 321.602824 215.471208 
L 321.734118 252.484269 
L 321.799765 236.633573 
L 321.996706 252.484269 
L 322.062353 252.484269 
L 322.324941 226.052391 
L 322.521882 194.308843 
L 322.587529 199.620512 
L 322.718824 241.903086 
L 322.784471 241.903086 
L 322.915765 268.377121 
L 322.981412 252.484269 
L 323.047059 257.795938 
L 323.112706 257.795938 
L 323.375294 210.201695 
L 323.440941 210.201695 
L 323.506588 194.308843 
L 323.572235 199.620512 
L 323.637882 199.620512 
L 323.834824 236.633573 
L 323.900471 220.782877 
L 324.031765 241.903086 
L 324.228706 231.321904 
L 324.36 247.214756 
L 324.556941 226.052391 
L 324.622588 226.052391 
L 324.688235 231.321904 
L 325.016471 194.308843 
L 325.082118 199.620512 
L 325.213412 226.052391 
L 325.279059 220.782877 
L 325.344706 241.903086 
L 325.410353 231.321904 
L 325.476 236.633573 
L 325.607294 220.782877 
L 325.672941 236.633573 
L 325.738588 231.321904 
L 325.804235 231.321904 
L 325.869882 220.782877 
L 325.935529 226.052391 
L 326.001176 226.052391 
L 326.198118 199.620512 
L 326.329412 194.308843 
L 326.592 226.052391 
L 326.657647 220.782877 
L 326.723294 226.052391 
L 327.182824 194.308843 
L 327.379765 194.308843 
L 327.511059 204.890025 
L 327.642353 226.052391 
L 327.773647 220.782877 
L 327.904941 220.782877 
L 327.970588 215.471208 
L 328.036235 194.308843 
L 328.101882 199.620512 
L 328.233176 194.308843 
L 328.955294 194.308843 
L 329.020941 199.620512 
L 329.152235 194.308843 
L 329.283529 194.308843 
L 329.349176 204.890025 
L 329.480471 194.308843 
L 329.611765 194.308843 
L 329.677412 199.620512 
L 329.743059 194.308843 
L 329.808706 199.620512 
L 329.94 194.308843 
L 330.005647 204.890025 
L 330.136941 194.308843 
L 330.530824 194.308843 
L 330.662118 199.620512 
L 330.793412 194.308843 
L 330.859059 199.620512 
L 330.990353 194.308843 
L 331.121647 194.308843 
L 331.187294 199.620512 
L 331.252941 215.471208 
L 331.318588 210.201695 
L 331.515529 220.782877 
L 331.909412 194.308843 
L 331.975059 199.620512 
L 332.106353 194.308843 
L 332.368941 194.308843 
L 332.434588 199.620512 
L 332.565882 194.308843 
L 333.353647 194.308843 
L 333.419294 204.890025 
L 333.484941 199.620512 
L 333.550588 204.890025 
L 333.747529 226.052391 
L 333.813176 215.471208 
L 333.878824 220.782877 
L 334.010118 226.052391 
L 334.272706 194.308843 
L 334.404 194.308843 
L 334.535294 210.201695 
L 334.600941 210.201695 
L 334.732235 220.782877 
L 334.797882 220.782877 
L 334.929176 226.052391 
L 335.323059 194.308843 
L 335.454353 220.782877 
L 335.52 210.201695 
L 335.585647 215.471208 
L 335.651294 210.201695 
L 335.782588 226.052391 
L 336.045176 194.308843 
L 336.307765 194.308843 
L 336.504706 215.471208 
L 336.570353 236.633573 
L 336.636 226.052391 
L 336.701647 241.903086 
L 336.767294 231.321904 
L 336.832941 236.633573 
L 337.161176 194.308843 
L 337.489412 194.308843 
L 337.555059 204.890025 
L 337.620706 199.620512 
L 337.686353 204.890025 
L 337.817647 194.308843 
L 338.145882 194.308843 
L 338.211529 199.620512 
L 338.342824 194.308843 
L 338.474118 204.890025 
L 338.671059 194.308843 
L 339.064941 194.308843 
L 339.130588 204.890025 
L 339.196235 199.620512 
L 339.327529 194.308843 
L 339.458824 199.620512 
L 339.524471 199.620512 
L 339.590118 204.890025 
L 339.721412 194.308843 
L 339.787059 194.308843 
L 339.918353 204.890025 
L 340.049647 199.620512 
L 340.115294 199.620512 
L 340.246588 194.308843 
L 340.377882 194.308843 
L 340.443529 199.620512 
L 340.574824 194.308843 
L 340.706118 194.308843 
L 340.771765 210.201695 
L 340.837412 204.890025 
L 340.903059 199.620512 
L 340.968706 204.890025 
L 341.1 194.308843 
L 341.231294 194.308843 
L 341.296941 199.620512 
L 341.428235 194.308843 
L 341.493882 194.308843 
L 341.559529 210.201695 
L 341.625176 204.890025 
L 341.822118 204.890025 
L 341.953412 194.308843 
L 343.266353 194.308843 
L 343.397647 204.890025 
L 343.463294 204.890025 
L 343.594588 194.308843 
L 343.725882 199.620512 
L 343.857176 194.308843 
L 343.922824 194.308843 
L 344.119765 215.471208 
L 344.185412 210.201695 
L 344.251059 215.471208 
L 344.579294 194.308843 
L 344.907529 194.308843 
L 345.038824 210.201695 
L 345.104471 226.052391 
L 345.170118 215.471208 
L 345.301412 215.471208 
L 345.498353 199.620512 
L 345.564 204.890025 
L 345.629647 199.620512 
L 345.957882 236.633573 
L 346.154824 220.782877 
L 346.220471 220.782877 
L 346.351765 204.890025 
L 346.417412 194.308843 
L 346.483059 215.471208 
L 346.548706 204.890025 
L 346.68 236.633573 
L 346.745647 226.052391 
L 346.876941 199.620512 
L 346.942588 199.620512 
L 347.073882 194.308843 
L 347.205176 194.308843 
L 347.402118 210.201695 
L 347.533412 210.201695 
L 347.730353 194.308843 
L 347.796 199.620512 
L 347.927294 194.308843 
L 347.992941 194.308843 
L 348.452471 226.052391 
L 348.715059 194.308843 
L 348.780706 215.471208 
L 348.846353 204.890025 
L 348.912 194.308843 
L 348.977647 199.620512 
L 349.043294 194.308843 
L 349.108941 199.620512 
L 349.174588 194.308843 
L 349.305882 210.201695 
L 349.568471 194.308843 
L 349.634118 199.620512 
L 349.699765 215.471208 
L 349.765412 204.890025 
L 349.831059 204.890025 
L 349.962353 194.308843 
L 350.028 199.620512 
L 350.159294 194.308843 
L 350.224941 194.308843 
L 350.421882 210.201695 
L 350.684471 194.308843 
L 350.750118 199.620512 
L 350.881412 194.308843 
L 351.012706 194.308843 
L 351.078353 199.620512 
L 351.209647 194.308843 
L 352.128706 194.308843 
L 352.26 199.620512 
L 352.325647 199.620512 
L 352.391294 194.308843 
L 352.522588 204.890025 
L 352.653882 194.308843 
L 352.850824 194.308843 
L 352.982118 210.201695 
L 353.047765 210.201695 
L 353.310353 194.308843 
L 353.376 199.620512 
L 353.507294 194.308843 
L 353.769882 215.471208 
L 353.966824 247.214756 
L 354.229412 220.782877 
L 354.360706 194.308843 
L 354.426353 199.620512 
L 354.557647 194.308843 
L 354.623294 226.052391 
L 354.688941 215.471208 
L 354.754588 210.201695 
L 354.951529 226.052391 
L 355.148471 204.890025 
L 355.279765 194.308843 
L 355.411059 215.471208 
L 355.542353 204.890025 
L 355.673647 220.782877 
L 355.739294 215.471208 
L 355.804941 231.321904 
L 355.870588 226.052391 
L 355.936235 220.782877 
L 356.133176 194.308843 
L 356.264471 194.308843 
L 356.527059 210.201695 
L 356.592706 231.321904 
L 356.658353 226.052391 
L 356.724 220.782877 
L 356.789647 226.052391 
L 356.855294 204.890025 
L 356.920941 215.471208 
L 357.183529 247.214756 
L 357.249176 236.633573 
L 357.314824 241.903086 
L 357.380471 252.484269 
L 357.446118 226.052391 
L 357.511765 252.484269 
L 357.577412 236.633573 
L 357.643059 231.321904 
L 357.708706 215.471208 
L 357.774353 231.321904 
L 358.036941 194.308843 
L 358.102588 199.620512 
L 358.233882 194.308843 
L 358.365176 210.201695 
L 358.430824 204.890025 
L 358.562118 220.782877 
L 358.627765 215.471208 
L 358.759059 220.782877 
L 358.890353 199.620512 
L 358.956 199.620512 
L 359.087294 194.308843 
L 359.218588 194.308843 
L 359.284235 199.620512 
L 359.415529 194.308843 
L 359.546824 194.308843 
L 359.612471 204.890025 
L 359.678118 194.308843 
L 359.743765 199.620512 
L 359.809412 194.308843 
L 359.875059 204.890025 
L 360.006353 194.308843 
L 360.137647 194.308843 
L 360.334588 215.471208 
L 360.465882 210.201695 
L 360.531529 210.201695 
L 360.662824 194.308843 
L 361.319294 194.308843 
L 361.384941 199.620512 
L 361.516235 194.308843 
L 361.647529 194.308843 
L 361.713176 199.620512 
L 361.844471 194.308843 
L 362.632235 194.308843 
L 362.763529 226.052391 
L 362.829176 220.782877 
L 362.960471 210.201695 
L 363.091765 220.782877 
L 363.485647 194.308843 
L 363.879529 194.308843 
L 363.945176 199.620512 
L 364.076471 294.808999 
L 364.142118 289.49733 
L 364.273412 294.808999 
L 364.339059 294.808999 
L 364.404706 305.390182 
L 364.536 284.227817 
L 364.732941 300.078512 
L 365.258118 194.308843 
L 365.652 194.308843 
L 365.783294 199.620512 
L 365.848941 199.620512 
L 365.980235 194.308843 
L 366.045882 199.620512 
L 366.177176 194.308843 
L 368.409176 194.308843 
L 368.474824 199.620512 
L 368.606118 194.308843 
L 368.737412 199.620512 
L 368.803059 199.620512 
L 368.868706 204.890025 
L 368.934353 194.308843 
L 369 199.620512 
L 369.065647 199.620512 
L 369.131294 194.308843 
L 369.196941 199.620512 
L 369.328235 194.308843 
L 369.722118 194.308843 
L 369.787765 199.620512 
L 369.853412 194.308843 
L 369.984706 204.890025 
L 370.116 194.308843 
L 370.378588 194.308843 
L 370.444235 199.620512 
L 370.575529 194.308843 
L 370.772471 194.308843 
L 370.903765 199.620512 
L 371.035059 194.308843 
L 371.560235 194.308843 
L 371.625882 199.620512 
L 371.757176 194.308843 
L 371.822824 199.620512 
L 371.954118 194.308843 
L 372.676235 194.308843 
L 372.741882 199.620512 
L 372.873176 194.308843 
L 373.201412 194.308843 
L 373.267059 199.620512 
L 373.398353 194.308843 
L 373.660941 194.308843 
L 373.726588 199.620512 
L 373.857882 194.308843 
L 373.923529 199.620512 
L 374.054824 194.308843 
L 374.383059 194.308843 
L 374.514353 199.620512 
L 374.645647 194.308843 
L 374.711294 194.308843 
L 374.842588 204.890025 
L 374.973882 194.308843 
L 375.039529 194.308843 
L 375.170824 210.201695 
L 375.236471 199.620512 
L 375.302118 204.890025 
L 375.499059 194.308843 
L 375.564706 210.201695 
L 375.696 194.308843 
L 376.089882 194.308843 
L 376.155529 199.620512 
L 376.221176 194.308843 
L 376.286824 210.201695 
L 376.418118 194.308843 
L 376.483765 199.620512 
L 376.615059 194.308843 
L 376.746353 194.308843 
L 376.943294 210.201695 
L 377.074588 210.201695 
L 377.337176 194.308843 
L 377.402824 199.620512 
L 377.534118 194.308843 
L 377.862353 194.308843 
L 377.928 204.890025 
L 377.993647 199.620512 
L 378.124941 194.308843 
L 378.190588 199.620512 
L 378.321882 194.308843 
L 378.453176 194.308843 
L 378.518824 204.890025 
L 378.584471 199.620512 
L 378.781412 199.620512 
L 378.912706 194.308843 
L 379.569176 194.308843 
L 379.634824 199.620512 
L 379.700471 194.308843 
L 379.831765 204.890025 
L 379.897412 194.308843 
L 379.963059 210.201695 
L 380.094353 194.308843 
L 380.225647 194.308843 
L 380.291294 210.201695 
L 380.356941 204.890025 
L 380.422588 204.890025 
L 380.553882 194.308843 
L 380.619529 199.620512 
L 380.750824 194.308843 
L 381.079059 194.308843 
L 381.144706 199.620512 
L 381.276 194.308843 
L 381.341647 194.308843 
L 381.472941 204.890025 
L 381.669882 194.308843 
L 381.735529 199.620512 
L 381.801176 215.471208 
L 381.866824 210.201695 
L 381.998118 210.201695 
L 382.129412 194.308843 
L 382.260706 199.620512 
L 382.392 194.308843 
L 383.508 194.308843 
L 383.639294 199.620512 
L 383.770588 194.308843 
L 384.033176 194.308843 
L 384.164471 199.620512 
L 384.230118 194.308843 
L 384.361412 204.890025 
L 384.558353 194.308843 
L 385.411765 194.308843 
L 385.477412 199.620512 
L 385.543059 194.308843 
L 385.608706 204.890025 
L 385.674353 194.308843 
L 385.74 199.620512 
L 385.805647 204.890025 
L 386.002588 194.308843 
L 386.133882 204.890025 
L 386.330824 194.308843 
L 386.396471 194.308843 
L 386.462118 199.620512 
L 386.593412 194.308843 
L 388.562824 194.308843 
L 388.694118 199.620512 
L 388.759765 199.620512 
L 388.891059 194.308843 
L 389.350588 194.308843 
L 389.416235 199.620512 
L 389.547529 194.308843 
L 389.810118 194.308843 
L 389.875765 199.620512 
L 390.007059 194.308843 
L 390.138353 194.308843 
L 390.269647 199.620512 
L 390.400941 194.308843 
L 390.466588 194.308843 
L 390.532235 199.620512 
L 390.663529 194.308843 
L 391.123059 194.308843 
L 391.254353 199.620512 
L 391.385647 194.308843 
L 391.516941 194.308843 
L 391.713882 204.890025 
L 391.779529 194.308843 
L 391.845176 199.620512 
L 391.976471 194.308843 
L 392.304706 194.308843 
L 392.370353 199.620512 
L 392.501647 194.308843 
L 392.567294 199.620512 
L 392.698588 194.308843 
L 393.617647 194.308843 
L 393.683294 204.890025 
L 393.814588 194.308843 
L 394.602353 194.308843 
L 394.668 199.620512 
L 394.733647 194.308843 
L 394.799294 199.620512 
L 394.930588 194.308843 
L 395.127529 194.308843 
L 395.193176 199.620512 
L 395.324471 194.308843 
L 395.455765 194.308843 
L 395.521412 199.620512 
L 395.652706 194.308843 
L 396.112235 194.308843 
L 396.177882 199.620512 
L 396.309176 194.308843 
L 396.834353 194.308843 
L 396.965647 199.620512 
L 397.096941 194.308843 
L 397.162588 204.890025 
L 397.293882 194.308843 
L 397.490824 194.308843 
L 397.687765 204.890025 
L 397.753412 204.890025 
L 397.819059 194.308843 
L 397.884706 199.620512 
L 397.950353 194.308843 
L 398.016 204.890025 
L 398.081647 199.620512 
L 398.212941 194.308843 
L 398.409882 194.308843 
L 398.541176 199.620512 
L 398.672471 194.308843 
L 398.738118 194.308843 
L 398.869412 199.620512 
L 399.000706 194.308843 
L 399.132 194.308843 
L 399.197647 199.620512 
L 399.263294 194.308843 
L 399.328941 199.620512 
L 399.460235 194.308843 
L 399.525882 194.308843 
L 399.657176 204.890025 
L 399.788471 194.308843 
L 399.985412 194.308843 
L 400.051059 199.620512 
L 400.182353 194.308843 
L 400.313647 194.308843 
L 400.379294 204.890025 
L 400.444941 199.620512 
L 400.576235 194.308843 
L 400.641882 194.308843 
L 400.904471 210.201695 
L 400.970118 210.201695 
L 401.232706 194.308843 
L 401.298353 199.620512 
L 401.429647 194.308843 
L 402.873882 194.308843 
L 402.939529 199.620512 
L 403.070824 194.308843 
L 403.202118 204.890025 
L 403.399059 194.308843 
L 403.727294 194.308843 
L 403.924235 310.659695 
L 403.989882 310.448914 
L 404.055529 305.390182 
L 404.186824 310.659695 
L 404.974588 194.308843 
L 491.694353 194.308843 
L 491.76 218.843697 
L 491.891294 405.848182 
L 491.956941 405.637401 
L 492.088235 405.848182 
L 648 405.848182 
L 648 405.848182 
" clip-path="url(#p0c87d22a37)" style="fill: none; stroke: #1f77b4; stroke-width: 2; stroke-linecap: square"/>
   </g>
   <g id="patch_3">
    <path d="M 90 416.52 
L 90 181.74 
" style="fill: none; stroke: #000000; stroke-width: 0.8; stroke-linejoin: miter; stroke-linecap: square"/>
   </g>
   <g id="patch_4">
    <path d="M 648 416.52 
L 648 181.74 
" style="fill: none; stroke: #000000; stroke-width: 0.8; stroke-linejoin: miter; stroke-linecap: square"/>
   </g>
   <g id="patch_5">
    <path d="M 90 416.52 
L 648 416.52 
" style="fill: none; stroke: #000000; stroke-width: 0.8; stroke-linejoin: miter; stroke-linecap: square"/>
   </g>
   <g id="patch_6">
    <path d="M 90 181.74 
L 648 181.74 
" style="fill: none; stroke: #000000; stroke-width: 0.8; stroke-linejoin: miter; stroke-linecap: square"/>
   </g>
  </g>
  <g id="axes_2">
   <g id="patch_7">
    <path d="M 90 165.36 
L 648 165.36 
L 648 56.16 
L 90 56.16 
z
" style="fill: #ffffff"/>
   </g>
   <g id="matplotlib.axis_3">
    <g id="xtick_5">
     <g id="line2d_16">
      <path d="M 188.470588 165.36 
L 188.470588 56.16 
" clip-path="url(#pfb8d504ecf)" style="fill: none; stroke: #b0b0b0; stroke-width: 0.8; stroke-linecap: square"/>
     </g>
     <g id="line2d_17">
      <g>
       <use xlink:href="#ma7f762c375" x="188.470588" y="165.36" style="stroke: #000000; stroke-width: 0.8"/>
      </g>
     </g>
    </g>
    <g id="xtick_6">
     <g id="line2d_18">
      <path d="M 319.764706 165.36 
L 319.764706 56.16 
" clip-path="url(#pfb8d504ecf)" style="fill: none; stroke: #b0b0b0; stroke-width: 0.8; stroke-linecap: square"/>
     </g>
     <g id="line2d_19">
      <g>
       <use xlink:href="#ma7f762c375" x="319.764706" y="165.36" style="stroke: #000000; stroke-width: 0.8"/>
      </g>
     </g>
    </g>
    <g id="xtick_7">
     <g id="line2d_20">
      <path d="M 451.058824 165.36 
L 451.058824 56.16 
" clip-path="url(#pfb8d504ecf)" style="fill: none; stroke: #b0b0b0; stroke-width: 0.8; stroke-linecap: square"/>
     </g>
     <g id="line2d_21">
      <g>
       <use xlink:href="#ma7f762c375" x="451.058824" y="165.36" style="stroke: #000000; stroke-width: 0.8"/>
      </g>
     </g>
    </g>
    <g id="xtick_8">
     <g id="line2d_22">
      <path d="M 582.352941 165.36 
L 582.352941 56.16 
" clip-path="url(#pfb8d504ecf)" style="fill: none; stroke: #b0b0b0; stroke-width: 0.8; stroke-linecap: square"/>
     </g>
     <g id="line2d_23">
      <g>
       <use xlink:href="#ma7f762c375" x="582.352941" y="165.36" style="stroke: #000000; stroke-width: 0.8"/>
      </g>
     </g>
    </g>
   </g>
   <g id="matplotlib.axis_4">
    <g id="ytick_4">
     <g id="line2d_24">
      <path d="M 90 165.36 
L 648 165.36 
" clip-path="url(#pfb8d504ecf)" style="fill: none; stroke: #b0b0b0; stroke-width: 0.8; stroke-linecap: square"/>
     </g>
     <g id="line2d_25">
      <g>
       <use xlink:href="#m297839409d" x="90" y="165.36" style="stroke: #000000; stroke-width: 0.8"/>
      </g>
     </g>
     <g id="text_10">
      <!-- 0 -->
      <g transform="translate(69.0025 173.718281) scale(0.22 -0.22)">
       <use xlink:href="#DejaVuSans-30"/>
      </g>
     </g>
    </g>
    <g id="ytick_5">
     <g id="line2d_26">
      <path d="M 90 92.56 
L 648 92.56 
" clip-path="url(#pfb8d504ecf)" style="fill: none; stroke: #b0b0b0; stroke-width: 0.8; stroke-linecap: square"/>
     </g>
     <g id="line2d_27">
      <g>
       <use xlink:href="#m297839409d" x="90" y="92.56" style="stroke: #000000; stroke-width: 0.8"/>
      </g>
     </g>
     <g id="text_11">
      <!-- 20 -->
      <g transform="translate(55.005 100.918281) scale(0.22 -0.22)">
       <use xlink:href="#DejaVuSans-32"/>
       <use xlink:href="#DejaVuSans-30" transform="translate(63.623047 0)"/>
      </g>
     </g>
    </g>
    <g id="text_12">
     <!-- Backlog (Mb) -->
     <g transform="translate(46.429687 182.789375) rotate(-90) scale(0.22 -0.22)">
      <defs>
       <path id="DejaVuSans-42" d="M 1259 2228 
L 1259 519 
L 2272 519 
Q 2781 519 3026 730 
Q 3272 941 3272 1375 
Q 3272 1813 3026 2020 
Q 2781 2228 2272 2228 
L 1259 2228 
z
M 1259 4147 
L 1259 2741 
L 2194 2741 
Q 2656 2741 2882 2914 
Q 3109 3088 3109 3444 
Q 3109 3797 2882 3972 
Q 2656 4147 2194 4147 
L 1259 4147 
z
M 628 4666 
L 2241 4666 
Q 2963 4666 3353 4366 
Q 3744 4066 3744 3513 
Q 3744 3084 3544 2831 
Q 3344 2578 2956 2516 
Q 3422 2416 3680 2098 
Q 3938 1781 3938 1306 
Q 3938 681 3513 340 
Q 3088 0 2303 0 
L 628 0 
L 628 4666 
z
" transform="scale(0.015625)"/>
       <path id="DejaVuSans-61" d="M 2194 1759 
Q 1497 1759 1228 1600 
Q 959 1441 959 1056 
Q 959 750 1161 570 
Q 1363 391 1709 391 
Q 2188 391 2477 730 
Q 2766 1069 2766 1631 
L 2766 1759 
L 2194 1759 
z
M 3341 1997 
L 3341 0 
L 2766 0 
L 2766 531 
Q 2569 213 2275 61 
Q 1981 -91 1556 -91 
Q 1019 -91 701 211 
Q 384 513 384 1019 
Q 384 1609 779 1909 
Q 1175 2209 1959 2209 
L 2766 2209 
L 2766 2266 
Q 2766 2663 2505 2880 
Q 2244 3097 1772 3097 
Q 1472 3097 1187 3025 
Q 903 2953 641 2809 
L 641 3341 
Q 956 3463 1253 3523 
Q 1550 3584 1831 3584 
Q 2591 3584 2966 3190 
Q 3341 2797 3341 1997 
z
" transform="scale(0.015625)"/>
       <path id="DejaVuSans-63" d="M 3122 3366 
L 3122 2828 
Q 2878 2963 2633 3030 
Q 2388 3097 2138 3097 
Q 1578 3097 1268 2742 
Q 959 2388 959 1747 
Q 959 1106 1268 751 
Q 1578 397 2138 397 
Q 2388 397 2633 464 
Q 2878 531 3122 666 
L 3122 134 
Q 2881 22 2623 -34 
Q 2366 -91 2075 -91 
Q 1284 -91 818 406 
Q 353 903 353 1747 
Q 353 2603 823 3093 
Q 1294 3584 2113 3584 
Q 2378 3584 2631 3529 
Q 2884 3475 3122 3366 
z
" transform="scale(0.015625)"/>
       <path id="DejaVuSans-6b" d="M 581 4863 
L 1159 4863 
L 1159 1991 
L 2875 3500 
L 3609 3500 
L 1753 1863 
L 3688 0 
L 2938 0 
L 1159 1709 
L 1159 0 
L 581 0 
L 581 4863 
z
" transform="scale(0.015625)"/>
       <path id="DejaVuSans-6c" d="M 603 4863 
L 1178 4863 
L 1178 0 
L 603 0 
L 603 4863 
z
" transform="scale(0.015625)"/>
       <path id="DejaVuSans-4d" d="M 628 4666 
L 1569 4666 
L 2759 1491 
L 3956 4666 
L 4897 4666 
L 4897 0 
L 4281 0 
L 4281 4097 
L 3078 897 
L 2444 897 
L 1241 4097 
L 1241 0 
L 628 0 
L 628 4666 
z
" transform="scale(0.015625)"/>
      </defs>
      <use xlink:href="#DejaVuSans-42"/>
      <use xlink:href="#DejaVuSans-61" transform="translate(68.603516 0)"/>
      <use xlink:href="#DejaVuSans-63" transform="translate(129.882812 0)"/>
      <use xlink:href="#DejaVuSans-6b" transform="translate(184.863281 0)"/>
      <use xlink:href="#DejaVuSans-6c" transform="translate(242.773438 0)"/>
      <use xlink:href="#DejaVuSans-6f" transform="translate(270.556641 0)"/>
      <use xlink:href="#DejaVuSans-67" transform="translate(331.738281 0)"/>
      <use xlink:href="#DejaVuSans-20" transform="translate(395.214844 0)"/>
      <use xlink:href="#DejaVuSans-28" transform="translate(427.001953 0)"/>
      <use xlink:href="#DejaVuSans-4d" transform="translate(466.015625 0)"/>
      <use xlink:href="#DejaVuSans-62" transform="translate(552.294922 0)"/>
      <use xlink:href="#DejaVuSans-29" transform="translate(615.771484 0)"/>
     </g>
    </g>
   </g>
   <g id="line2d_28">
    <path d="M 89.934353 165.36 
L 188.667529 165.36 
L 189.586588 160.291722 
L 192.343765 154.401562 
L 193.197176 150.566108 
L 193.984941 145.223869 
L 199.433647 122.074168 
L 200.352706 117.005891 
L 200.812235 114.220621 
L 201.862588 106.686694 
L 201.993882 106.641034 
L 202.322118 106.549714 
L 202.650353 106.412733 
L 203.109882 106.321413 
L 203.241176 106.321413 
L 203.438118 106.230093 
L 203.832 106.047452 
L 204.028941 106.093112 
L 204.357176 106.001792 
L 204.619765 105.910472 
L 204.685412 105.956132 
L 204.816706 105.910472 
L 205.144941 106.230093 
L 205.276235 106.321413 
L 205.473176 106.504054 
L 205.670118 106.732355 
L 206.326588 107.280276 
L 206.917412 107.919519 
L 207.245647 108.010839 
L 207.508235 108.14782 
L 207.639529 108.14782 
L 208.033412 108.23914 
L 208.296 108.33046 
L 208.427294 108.33046 
L 208.821176 108.37612 
L 208.952471 108.42178 
L 209.477647 108.513101 
L 209.805882 108.650081 
L 210.199765 108.741402 
L 210.396706 108.787062 
L 210.593647 108.878382 
L 210.790588 108.924042 
L 211.118824 109.015363 
L 211.381412 109.106683 
L 211.775294 108.924042 
L 212.103529 108.878382 
L 212.300471 108.741402 
L 212.366118 108.787062 
L 212.563059 108.650081 
L 212.956941 108.558761 
L 213.088235 108.558761 
L 213.285176 108.467441 
L 213.416471 108.42178 
L 213.547765 108.42178 
L 214.860706 108.33046 
L 215.057647 108.2848 
L 215.188941 108.33046 
L 215.385882 108.23914 
L 215.911059 108.513101 
L 216.239294 108.604421 
L 216.764471 108.878382 
L 217.158353 108.969702 
L 217.683529 109.243663 
L 218.208706 109.152343 
L 218.471294 109.061023 
L 218.996471 109.152343 
L 219.127765 109.152343 
L 219.259059 109.152343 
L 219.390353 109.152343 
L 219.652941 109.015363 
L 219.784235 109.015363 
L 220.112471 109.106683 
L 220.178118 109.243663 
L 220.243765 109.198003 
L 221.097176 109.289324 
L 221.425412 109.426304 
L 221.622353 109.380644 
L 224.313882 109.334984 
L 224.510824 109.243663 
L 224.707765 109.289324 
L 224.839059 109.289324 
L 227.005412 109.380644 
L 227.136706 109.426304 
L 227.399294 109.334984 
L 227.530588 109.380644 
L 227.727529 109.334984 
L 227.990118 109.426304 
L 229.171765 109.334984 
L 229.434353 109.152343 
L 229.631294 109.198003 
L 229.893882 109.015363 
L 230.681647 109.106683 
L 230.944235 109.198003 
L 231.338118 109.289324 
L 231.732 109.471964 
L 231.863294 109.471964 
L 232.125882 109.608945 
L 232.257176 109.563284 
L 232.519765 109.654605 
L 233.176235 109.745925 
L 233.373176 109.791585 
L 233.898353 109.882906 
L 234.292235 110.065546 
L 234.554824 110.156867 
L 234.817412 110.248187 
L 235.736471 110.156867 
L 235.999059 110.065546 
L 236.327294 110.202527 
L 236.721176 110.019886 
L 239.150118 111.617992 
L 240.66 111.709312 
L 240.922588 111.846292 
L 241.119529 111.754972 
L 241.316471 111.846292 
L 241.447765 111.800632 
L 241.644706 111.846292 
L 242.760706 111.937613 
L 243.220235 112.165914 
L 243.417176 112.165914 
L 243.614118 112.394214 
L 244.598824 113.124777 
L 244.795765 113.353078 
L 245.255294 113.398738 
L 245.452235 113.581379 
L 245.583529 113.581379 
L 245.846118 113.627039 
L 245.977412 113.718359 
L 246.108706 113.718359 
L 246.568235 113.809679 
L 246.765176 113.94666 
L 246.896471 113.99232 
L 247.027765 114.08364 
L 247.159059 114.08364 
L 247.356 113.99232 
L 249.259765 141.479736 
L 250.900941 163.944535 
L 251.097882 165.36 
L 254.314588 165.36 
L 254.511529 164.492457 
L 254.708471 162.757371 
L 254.839765 162.757371 
L 254.971059 162.757371 
L 255.693176 164.035855 
L 255.758824 163.990195 
L 255.955765 164.081516 
L 256.218353 163.944535 
L 256.284 163.990195 
L 256.415294 163.944535 
L 256.480941 163.944535 
L 256.940471 164.903398 
L 257.071765 164.903398 
L 257.203059 164.949059 
L 257.531294 164.812078 
L 257.925176 164.903398 
L 258.122118 165.177359 
L 258.187765 165.086039 
L 258.384706 165.131699 
L 259.238118 165.131699 
L 259.369412 165.36 
L 259.435059 165.31434 
L 262.520471 165.22302 
L 262.651765 165.177359 
L 262.848706 165.22302 
L 263.045647 165.177359 
L 263.899059 165.26868 
L 264.161647 165.36 
L 266.131059 165.26868 
L 266.459294 165.131699 
L 268.166118 165.22302 
L 268.363059 165.26868 
L 268.625647 165.177359 
L 268.888235 165.040379 
L 269.085176 165.131699 
L 269.544706 165.36 
L 270.792 165.26868 
L 270.988941 165.22302 
L 271.120235 165.22302 
L 271.908 165.131699 
L 272.104941 165.040379 
L 272.498824 165.22302 
L 272.630118 165.22302 
L 272.958353 165.36 
L 273.155294 165.31434 
L 280.376471 165.22302 
L 280.639059 165.131699 
L 281.558118 165.040379 
L 281.886353 164.903398 
L 282.083294 165.040379 
L 283.264941 165.040379 
L 283.461882 165.36 
L 283.724471 165.22302 
L 283.855765 165.26868 
L 283.987059 165.26868 
L 301.777412 165.177359 
L 301.974353 165.131699 
L 302.171294 165.26868 
L 302.499529 165.131699 
L 302.630824 165.177359 
L 302.827765 165.131699 
L 303.024706 165.22302 
L 303.287294 165.131699 
L 303.418588 165.22302 
L 303.615529 165.31434 
L 303.746824 165.26868 
L 303.878118 165.36 
L 304.075059 165.26868 
L 306.438353 165.177359 
L 306.635294 165.086039 
L 306.832235 165.177359 
L 306.897882 165.086039 
L 306.963529 165.177359 
L 307.094824 165.22302 
L 307.226118 165.177359 
L 307.423059 165.22302 
L 308.932941 165.31434 
L 309.129882 165.36 
L 313.659529 165.31434 
L 313.790824 165.26868 
L 314.053412 165.36 
L 315.563294 165.31434 
L 315.760235 165.177359 
L 317.598353 165.26868 
L 317.664 165.31434 
L 317.795294 165.26868 
L 320.158588 165.177359 
L 320.289882 165.086039 
L 320.486824 165.36 
L 320.683765 165.31434 
L 320.815059 165.36 
L 320.946353 165.36 
L 328.298824 165.26868 
L 328.495765 165.22302 
L 328.758353 165.31434 
L 328.824 165.22302 
L 328.889647 165.31434 
L 342.609882 165.22302 
L 342.806824 165.177359 
L 342.938118 165.22302 
L 343.135059 165.177359 
L 343.463294 165.36 
L 343.660235 165.31434 
L 344.644941 165.22302 
L 344.841882 165.177359 
L 345.170118 165.36 
L 345.301412 165.36 
L 350.881412 165.26868 
L 351.012706 165.22302 
L 351.144 165.26868 
L 351.275294 165.22302 
L 351.537882 165.31434 
L 351.734824 165.26868 
L 360.991059 165.177359 
L 361.056706 165.131699 
L 361.319294 165.36 
L 361.516235 165.26868 
L 361.713176 165.31434 
L 363.682588 165.26868 
L 363.813882 165.22302 
L 364.010824 165.36 
L 365.323765 165.26868 
L 365.520706 165.177359 
L 365.783294 165.36 
L 365.914588 165.31434 
L 366.045882 165.31434 
L 367.293176 165.22302 
L 367.424471 165.22302 
L 368.474824 165.31434 
L 368.606118 165.36 
L 368.737412 165.31434 
L 368.934353 165.36 
L 369.131294 165.31434 
L 372.348 165.22302 
L 372.479294 165.22302 
L 372.741882 165.31434 
L 379.175294 165.22302 
L 379.306588 165.22302 
L 379.503529 165.26868 
L 379.700471 165.36 
L 382.720235 165.26868 
L 382.851529 165.26868 
L 387.249882 165.177359 
L 387.381176 165.131699 
L 387.578118 165.177359 
L 387.840706 165.086039 
L 387.972 165.177359 
L 388.168941 165.26868 
L 388.365882 165.22302 
L 388.497176 165.26868 
L 388.694118 165.36 
L 392.632941 165.31434 
L 392.829882 165.177359 
L 393.355059 165.26868 
L 393.552 165.31434 
L 401.757882 165.22302 
L 401.889176 165.131699 
L 402.086118 165.26868 
L 648 165.36 
L 648 165.36 
" clip-path="url(#pfb8d504ecf)" style="fill: none; stroke: #1f77b4; stroke-width: 2; stroke-linecap: square"/>
   </g>
   <g id="patch_8">
    <path d="M 90 165.36 
L 90 56.16 
" style="fill: none; stroke: #000000; stroke-width: 0.8; stroke-linejoin: miter; stroke-linecap: square"/>
   </g>
   <g id="patch_9">
    <path d="M 648 165.36 
L 648 56.16 
" style="fill: none; stroke: #000000; stroke-width: 0.8; stroke-linejoin: miter; stroke-linecap: square"/>
   </g>
   <g id="patch_10">
    <path d="M 90 165.36 
L 648 165.36 
" style="fill: none; stroke: #000000; stroke-width: 0.8; stroke-linejoin: miter; stroke-linecap: square"/>
   </g>
   <g id="patch_11">
    <path d="M 90 56.16 
L 648 56.16 
" style="fill: none; stroke: #000000; stroke-width: 0.8; stroke-linejoin: miter; stroke-linecap: square"/>
   </g>
  </g>
 </g>
 <defs>
  <clipPath id="p0c87d22a37">
   <rect x="90" y="181.74" width="558" height="234.78"/>
  </clipPath>
  <clipPath id="pfb8d504ecf">
   <rect x="90" y="56.16" width="558" height="109.2"/>
  </clipPath>
 </defs>
</svg>
